%TF.GenerationSoftware,KiCad,Pcbnew,9.0.4*%
%TF.CreationDate,2026-02-05T14:24:45+01:00*%
%TF.ProjectId,tjockare-spole,746a6f63-6b61-4726-952d-73706f6c652e,rev?*%
%TF.SameCoordinates,Original*%
%TF.FileFunction,Copper,L2,Bot*%
%TF.FilePolarity,Positive*%
%FSLAX46Y46*%
G04 Gerber Fmt 4.6, Leading zero omitted, Abs format (unit mm)*
G04 Created by KiCad (PCBNEW 9.0.4) date 2026-02-05 14:24:45*
%MOMM*%
%LPD*%
G01*
G04 APERTURE LIST*
%TA.AperFunction,EtchedComponent*%
%ADD10C,0.800000*%
%TD*%
%TA.AperFunction,ComponentPad*%
%ADD11C,2.300000*%
%TD*%
G04 APERTURE END LIST*
D10*
%TO.C,REF\u002A\u002A*%
X172700000Y-67500000D02*
X177000000Y-67500000D01*
X172700000Y-67500000D02*
X127150000Y-67500000D01*
X172700000Y-69050000D02*
X172250000Y-68600000D01*
X172700000Y-113050000D02*
X172700000Y-69050000D01*
X172250000Y-113500000D02*
X172700000Y-113050000D01*
X172250000Y-113500000D02*
X127150000Y-113500000D01*
X171600000Y-70150000D02*
X171150000Y-69700000D01*
X171600000Y-111950000D02*
X171600000Y-70150000D01*
X171150000Y-112400000D02*
X171600000Y-111950000D01*
X170500000Y-71250000D02*
X170050000Y-70800000D01*
X170500000Y-110850000D02*
X170500000Y-71250000D01*
X170050000Y-70800000D02*
X130450000Y-70800000D01*
X170050000Y-111300000D02*
X170500000Y-110850000D01*
X169400000Y-72350000D02*
X168950000Y-71900000D01*
X169400000Y-109750000D02*
X169400000Y-72350000D01*
X168950000Y-71900000D02*
X131550000Y-71900000D01*
X168950000Y-110200000D02*
X169400000Y-109750000D01*
X168950000Y-110200000D02*
X130450000Y-110200000D01*
X168300000Y-73450000D02*
X167850000Y-73000000D01*
X168300000Y-108650000D02*
X168300000Y-73450000D01*
X167850000Y-73000000D02*
X132650000Y-73000000D01*
X167850000Y-109100000D02*
X168300000Y-108650000D01*
X167200000Y-74550000D02*
X166750000Y-74100000D01*
X167200000Y-107550000D02*
X167200000Y-74550000D01*
X167200000Y-107550000D02*
X166750000Y-108000000D01*
X166750000Y-74100000D02*
X133750000Y-74100000D01*
X166750000Y-108000000D02*
X132650000Y-108000000D01*
X166100000Y-75650000D02*
X166100000Y-106450000D01*
X166100000Y-75650000D02*
X165650000Y-75200000D01*
X166100000Y-106450000D02*
X165650000Y-106900000D01*
X165650000Y-75200000D02*
X134850000Y-75200000D01*
X165650000Y-106900000D02*
X133750000Y-106900000D01*
X165000000Y-76750000D02*
X165000000Y-105350000D01*
X165000000Y-76750000D02*
X164550000Y-76300000D01*
X165000000Y-105350000D02*
X164550000Y-105800000D01*
X163900000Y-77850000D02*
X163900000Y-104250000D01*
X163450000Y-77400000D02*
X163900000Y-77850000D01*
X163450000Y-104700000D02*
X163900000Y-104250000D01*
X162800000Y-78950000D02*
X162350000Y-78500000D01*
X162800000Y-103150000D02*
X162800000Y-78950000D01*
X162350000Y-78500000D02*
X138150000Y-78500000D01*
X162350000Y-103600000D02*
X162800000Y-103150000D01*
X161700000Y-80050000D02*
X161250000Y-79600000D01*
X161700000Y-102050000D02*
X161700000Y-80050000D01*
X161700000Y-102050000D02*
X161250000Y-102500000D01*
X161250000Y-79600000D02*
X139250000Y-79600000D01*
X161250000Y-102500000D02*
X138150000Y-102500000D01*
X160600000Y-81150000D02*
X160150000Y-80700000D01*
X160600000Y-100950000D02*
X160600000Y-81150000D01*
X160600000Y-100950000D02*
X160150000Y-101400000D01*
X160150000Y-80700000D02*
X140350000Y-80700000D01*
X160150000Y-101400000D02*
X139250000Y-101400000D01*
X159500000Y-82250000D02*
X159500000Y-99850000D01*
X159500000Y-82250000D02*
X159050000Y-81800000D01*
X159500000Y-99850000D02*
X159050000Y-100300000D01*
X159050000Y-81800000D02*
X141450000Y-81800000D01*
X158400000Y-83350000D02*
X158400000Y-98750000D01*
X158400000Y-83350000D02*
X157950000Y-82900000D01*
X158400000Y-98750000D02*
X157950000Y-99200000D01*
X157950000Y-99200000D02*
X141450000Y-99200000D01*
X157300000Y-88500000D02*
X157300000Y-97650000D01*
X157300000Y-88500000D02*
X155100000Y-86300000D01*
X157300000Y-97650000D02*
X156850000Y-98100000D01*
X142550000Y-82900000D02*
X157950000Y-82900000D01*
X142550000Y-98100000D02*
X156850000Y-98100000D01*
X142100000Y-83350000D02*
X142550000Y-82900000D01*
X142100000Y-97650000D02*
X142550000Y-98100000D01*
X142100000Y-97650000D02*
X142100000Y-83350000D01*
X141450000Y-81800000D02*
X141000000Y-82250000D01*
X141000000Y-82250000D02*
X141000000Y-98750000D01*
X141000000Y-98750000D02*
X141450000Y-99200000D01*
X140350000Y-80700000D02*
X139900000Y-81150000D01*
X140350000Y-100300000D02*
X159050000Y-100300000D01*
X139900000Y-81150000D02*
X139900000Y-99850000D01*
X139900000Y-99850000D02*
X140350000Y-100300000D01*
X139250000Y-79600000D02*
X138800000Y-80050000D01*
X138800000Y-80050000D02*
X138800000Y-100950000D01*
X138800000Y-100950000D02*
X139250000Y-101400000D01*
X138150000Y-78500000D02*
X137700000Y-78950000D01*
X137700000Y-78950000D02*
X137700000Y-102050000D01*
X137700000Y-102050000D02*
X138150000Y-102500000D01*
X137050000Y-77400000D02*
X163450000Y-77400000D01*
X137050000Y-77400000D02*
X136600000Y-77850000D01*
X137050000Y-103600000D02*
X162350000Y-103600000D01*
X136600000Y-77850000D02*
X136600000Y-103150000D01*
X136600000Y-103150000D02*
X137050000Y-103600000D01*
X135950000Y-76300000D02*
X164550000Y-76300000D01*
X135950000Y-104700000D02*
X163450000Y-104700000D01*
X135950000Y-104700000D02*
X135500000Y-104250000D01*
X135500000Y-76750000D02*
X135950000Y-76300000D01*
X135500000Y-104250000D02*
X135500000Y-76750000D01*
X134850000Y-75200000D02*
X134400000Y-75650000D01*
X134850000Y-105800000D02*
X164550000Y-105800000D01*
X134400000Y-75650000D02*
X134400000Y-105350000D01*
X134400000Y-105350000D02*
X134850000Y-105800000D01*
X133750000Y-74100000D02*
X133300000Y-74550000D01*
X133750000Y-106900000D02*
X133300000Y-106450000D01*
X133300000Y-74550000D02*
X133300000Y-106450000D01*
X132650000Y-73000000D02*
X132200000Y-73450000D01*
X132200000Y-73450000D02*
X132200000Y-107550000D01*
X132200000Y-107550000D02*
X132650000Y-108000000D01*
X131550000Y-71900000D02*
X131100000Y-72350000D01*
X131550000Y-109100000D02*
X167850000Y-109100000D01*
X131100000Y-72350000D02*
X131100000Y-108650000D01*
X131100000Y-108650000D02*
X131550000Y-109100000D01*
X130450000Y-70800000D02*
X130000000Y-71250000D01*
X130450000Y-110200000D02*
X130000000Y-109750000D01*
X130000000Y-109750000D02*
X130000000Y-71250000D01*
X129350000Y-69700000D02*
X171150000Y-69700000D01*
X129350000Y-111300000D02*
X170050000Y-111300000D01*
X128900000Y-70150000D02*
X129350000Y-69700000D01*
X128900000Y-70150000D02*
X128900000Y-110850000D01*
X128900000Y-110850000D02*
X129350000Y-111300000D01*
X128250000Y-68600000D02*
X172250000Y-68600000D01*
X128250000Y-112400000D02*
X171150000Y-112400000D01*
X127800000Y-69050000D02*
X128250000Y-68600000D01*
X127800000Y-111950000D02*
X128250000Y-112400000D01*
X127800000Y-111950000D02*
X127800000Y-69050000D01*
X127150000Y-67500000D02*
X126700000Y-67950000D01*
X127150000Y-113500000D02*
X126700000Y-113050000D01*
X126700000Y-113050000D02*
X126700000Y-67950000D01*
%TD*%
D11*
%TO.P,REF\u002A\u002A,0*%
%TO.N,N/C*%
X155100000Y-86300000D03*
%TO.P,REF\u002A\u002A,1*%
X177000000Y-67500000D03*
%TD*%
M02*
